# xmcd
#
# Track frame offsets: 
#        150
#        16763
#        33930
#        46902
#        68061
#        93502
#        106635
#        129555
#        147355
#        164453
#        177964
#        212483
#
# Disc length: 2900 seconds
#
# Revision: 0
# Processed by: cddbd v1.5.2PL0 Copyright (c) Steve Scherf et al.
# Submitted via: ExactAudioCopy v1.0b1
#
DISCID=970b520c
DTITLE=Rusty Apollo - Oh Yeah
DYEAR=2015
DGENRE=Blues
TTITLE0=I'm going down
TTITLE1=I'm going upstairs
TTITLE2=mellow down easy
TTITLE3=smoke stack lightning
TTITLE4=highway 13
TTITLE5=chevrolet
TTITLE6=back door man
TTITLE7=kokomo me baby
TTITLE8=wreck my life
TTITLE9=take out some insurance
TTITLE10=the crawling king snake
TTITLE11=bonus track
EXTD=
EXTT0=
EXTT1=
EXTT2=
EXTT3=
EXTT4=
EXTT5=
EXTT6=
EXTT7=
EXTT8=
EXTT9=
EXTT10=
EXTT11=
PLAYORDER=
